<svg width="16" height="16" viewBox="0 0 16 16" fill="none" xmlns="http://www.w3.org/2000/svg">
<path fill-rule="evenodd" clip-rule="evenodd" d="M7.99724 4.06075e-07C12.431 0.0014314 15.9981 3.58162 16 8.02231C16.0019 12.4192 12.3874 16.0348 7.92245 15.9997C3.61867 15.966 -0.0151577 12.3968 4.75464e-05 7.99929C0.0153302 3.57779 3.58284 -0.00139191 7.99724 4.06075e-07ZM1.92539 12.19C1.92268 12.2671 1.96315 12.3236 2.00656 12.3835C2.32893 12.8289 2.67799 13.2497 3.10393 13.6016C3.29715 13.7612 3.47625 13.9387 3.68707 14.0761C4.27272 14.4578 4.87521 14.804 5.53975 15.038C6.08331 15.2293 6.63813 15.3761 7.20842 15.4287C7.64968 15.4694 8.09926 15.4922 8.54219 15.4325C8.80304 15.3973 9.07441 15.4 9.31982 15.2806C9.36084 15.3118 9.38235 15.263 9.41411 15.2577C9.94177 15.1699 10.4458 15.006 10.9342 14.7905C12.5632 14.0719 13.7962 12.9251 14.6009 11.3396C15.3092 9.94421 15.5463 8.46274 15.3151 6.9093C15.0953 5.43248 14.4873 4.136 13.483 3.03703C12.1185 1.54404 10.41 0.741603 8.3935 0.613626C7.488 0.556193 6.59719 0.677673 5.73289 0.960159C4.33676 1.41645 3.17206 2.21247 2.24725 3.35518C1.18733 4.66477 0.658749 6.17037 0.601719 7.84649C0.587752 8.25772 0.626945 8.66695 0.684477 9.0749C0.817494 10.0187 1.12876 10.8992 1.61033 11.7201C1.70563 11.8828 1.7849 12.0572 1.92539 12.19Z" fill="#9A99AD"/>
<path fill-rule="evenodd" clip-rule="evenodd" d="M9.3199 15.2805C9.07444 15.4 8.80311 15.3973 8.54222 15.4324C8.09934 15.4922 7.64976 15.4693 7.20845 15.4287C6.63816 15.3761 6.08334 15.2293 5.53978 15.0379C4.87524 14.804 4.27276 14.4578 3.6871 14.0761C3.47628 13.9386 3.29718 13.7612 3.10396 13.6016C2.67802 13.2497 2.32896 12.8289 2.00659 12.3835C1.96318 12.3235 1.92271 12.2671 1.92542 12.1901C2.43346 11.0635 2.61527 9.86303 2.72612 8.64703C2.77734 8.08488 2.79688 7.51953 2.8861 6.96132C2.9906 6.30728 3.23474 5.71768 3.70478 5.23454C4.12999 4.79755 4.64743 4.50628 5.20774 4.28777C5.67671 4.10487 6.15004 3.93392 6.66277 3.90964C7.13459 3.88728 7.59501 3.96146 8.05531 4.0462C8.7549 4.21502 9.44127 4.42224 10.0874 4.74626C10.615 4.96435 11.146 5.17359 11.6946 5.33359C12.2645 5.49978 12.8247 5.68476 13.3076 6.04715C13.9154 6.50321 14.0865 7.09866 13.7993 7.80135C13.6227 8.23355 13.3207 8.57687 12.9948 8.90302C12.4204 9.47821 11.8149 10.0224 11.2818 10.639C10.6567 11.3619 10.0864 12.1211 9.69833 13.0012C9.37809 13.7275 9.19473 14.4791 9.3199 15.2805ZM13.3586 8.38833C13.3324 8.38705 13.3112 8.39595 13.2966 8.41854C13.2713 8.42399 13.2479 8.432 13.2461 8.46336C13.2459 8.46688 13.2522 8.47353 13.256 8.47388C13.287 8.47705 13.2995 8.45679 13.3075 8.43134C13.3265 8.41892 13.3455 8.40651 13.3644 8.39409C13.3728 8.38806 13.3941 8.38705 13.3739 8.36984C13.3689 8.37603 13.3638 8.38222 13.3586 8.38833ZM6.95314 4.74773C6.16157 4.74704 5.51874 5.38797 5.51858 6.17803C5.51839 6.96701 6.1627 7.61223 6.95116 7.6127C7.74052 7.61316 8.38452 6.96937 8.38468 6.17969C8.38475 5.38731 7.74613 4.74847 6.95314 4.74773ZM8.12398 9.1543C8.23955 9.33398 8.48724 9.50269 8.75459 9.59891C9.29223 9.79252 9.84097 9.79442 10.3946 9.69022C11.3545 9.50965 12.2495 9.16404 13.0678 8.62769C13.1166 8.59567 13.1882 8.57633 13.204 8.50335C13.1647 8.48355 13.1435 8.50293 13.1229 8.51538C12.8498 8.68103 12.5619 8.81732 12.2681 8.94104C11.5052 9.2624 10.7129 9.46571 9.88381 9.50071C9.27296 9.52651 8.67191 9.48002 8.12398 9.1543ZM12.0794 7.92117C12.2489 7.91746 12.3921 7.7662 12.3862 7.59691C12.3802 7.42446 12.2317 7.28689 12.0591 7.29405C11.8944 7.30089 11.7593 7.44357 11.7608 7.6091C11.7624 7.78047 11.9098 7.92484 12.0794 7.92117Z" fill="#9A99AD"/>
<path fill-rule="evenodd" clip-rule="evenodd" d="M8.0553 4.04623C8.49919 3.9141 8.94594 3.87866 9.38906 4.03888C9.73061 4.1623 9.97618 4.39076 10.0874 4.7466C9.44125 4.42245 8.75489 4.21515 8.0553 4.04623Z" fill="#9A99AD"/>
<path fill-rule="evenodd" clip-rule="evenodd" d="M14.8978 8.49403C14.8399 8.20969 14.7825 7.92527 14.7242 7.641C14.5501 6.79207 14.27 5.97776 13.9223 5.18545C13.665 4.59913 13.3315 4.05705 12.9693 3.53103C12.4526 2.78087 11.7503 2.28745 10.9052 1.95894C10.0362 1.62111 9.16038 1.31867 8.23916 1.16118C8.20307 1.15499 8.1549 1.15186 8.15215 1.11257C8.14855 1.06155 8.20191 1.07439 8.23441 1.06832C8.84877 0.953686 9.44986 1.03262 10.0469 1.18779C10.6777 1.3517 11.2167 1.68017 11.7146 2.09032C12.2701 2.54793 12.8435 2.9857 13.3411 3.50821C14.1512 4.35899 14.6745 5.36197 14.9077 6.51581C14.9792 6.86954 15.0147 7.22806 15.0189 7.58558C15.0226 7.88887 15.0172 8.19843 14.9379 8.4965C14.9245 8.49565 14.9111 8.49488 14.8978 8.49403Z" fill="#9A99AD"/>
</svg>
