<svg width="16" height="16" viewBox="0 0 16 16" fill="none" xmlns="http://www.w3.org/2000/svg">
<path d="M13.9132 9.56045C13.7866 9.64641 13.6388 9.69714 13.4853 9.70729C13.3319 9.71745 13.1785 9.68664 13.0413 9.61813C12.7193 9.43891 12.5457 9.01867 12.5457 8.44599V6.69087C12.5457 5.84833 12.207 5.24887 11.6404 5.08613C10.6827 4.81009 9.96759 5.96575 9.69158 6.40041L7.99791 9.10107V5.80507C7.97909 5.04493 7.72818 4.58967 7.25353 4.45371C6.93989 4.36307 6.46942 4.40015 6.0115 5.08819L2.22478 11.0766C1.72094 10.1269 1.45969 9.07055 1.46367 7.99897C1.46367 4.38985 4.39101 1.45436 7.99791 1.45436C11.6048 1.45436 14.5426 4.38985 14.5426 7.99897V8.01751C14.5426 8.01751 14.5426 8.02987 14.5426 8.03605C14.5782 8.73439 14.3481 9.29059 13.9153 9.56045H13.9132ZM16.0042 8.00103V7.96601C15.9749 3.56792 12.3952 0 7.99791 0C3.60063 0 0 3.58852 0 7.99897C0 12.4094 3.58808 16 7.99791 16C10.0204 15.9999 11.966 15.2361 13.4344 13.8658C13.5769 13.7335 13.6608 13.5513 13.6678 13.3585C13.6749 13.1657 13.6045 12.9779 13.472 12.8358C13.4086 12.7667 13.332 12.7107 13.2465 12.6709C13.161 12.6311 13.0684 12.6083 12.9739 12.6039C12.8795 12.5995 12.7851 12.6136 12.6962 12.6452C12.6073 12.6769 12.5256 12.7256 12.4558 12.7885C11.8237 13.3793 11.0768 13.8381 10.2602 14.1374C9.4435 14.4368 8.57387 14.5705 7.70347 14.5305C6.83306 14.4904 5.97985 14.2775 5.19504 13.9046C4.41023 13.5316 3.71001 13.0062 3.13644 12.36L6.54469 6.96279V9.45333C6.54469 10.6502 7.01516 11.0375 7.41035 11.1508C7.80554 11.2641 8.40983 11.1858 9.04339 10.1723L10.9252 7.17085C10.9838 7.07403 11.0403 6.99163 11.0904 6.91953V8.44599C11.0904 9.56457 11.5463 10.4586 12.345 10.8994C12.7082 11.0926 13.1175 11.1859 13.5299 11.1696C13.9423 11.1533 14.3427 11.028 14.689 10.8067C15.5672 10.2444 16.046 9.22673 15.9958 8.00103H16.0042Z" fill="#9A99AD"/>
</svg>
