<svg width="16" height="13" viewBox="0 0 16 13" fill="none" xmlns="http://www.w3.org/2000/svg">
<path d="M13.5447 1.99034C12.5249 1.53012 11.4313 1.19105 10.2879 0.996847C10.2671 0.993099 10.2463 1.00247 10.2356 1.0212C10.0949 1.26723 9.93915 1.58819 9.83006 1.84047C8.60027 1.65938 7.37679 1.65938 6.17221 1.84047C6.0631 1.58258 5.90166 1.26723 5.76038 1.0212C5.74966 1.00309 5.72886 0.993724 5.70803 0.996847C4.56527 1.19043 3.47171 1.5295 2.45129 1.99034C2.44246 1.99409 2.43488 2.00034 2.42986 2.00845C0.355594 5.05638 -0.212633 8.0294 0.0661201 10.9656C0.0673814 10.9799 0.0755799 10.9937 0.086932 11.0024C1.45547 11.9909 2.78114 12.591 4.08219 12.9887C4.10301 12.995 4.12507 12.9875 4.13832 12.9706C4.44608 12.5573 4.72043 12.1214 4.95565 11.663C4.96953 11.6362 4.95628 11.6044 4.92791 11.5937C4.49275 11.4314 4.0784 11.2334 3.67982 11.0086C3.64829 10.9905 3.64577 10.9462 3.67477 10.9249C3.75865 10.8631 3.84255 10.7988 3.92264 10.7339C3.93713 10.722 3.95732 10.7195 3.97435 10.727C6.59286 11.9028 9.4277 11.9028 12.0153 10.727C12.0323 10.7189 12.0525 10.7214 12.0677 10.7332C12.1478 10.7982 12.2316 10.8631 12.3161 10.9249C12.3451 10.9462 12.3433 10.9905 12.3117 11.0086C11.9131 11.2378 11.4988 11.4314 11.063 11.5931C11.0346 11.6037 11.022 11.6362 11.0359 11.663C11.2762 12.1208 11.5505 12.5566 11.8526 12.97C11.8652 12.9875 11.8879 12.995 11.9087 12.9887C13.2161 12.591 14.5417 11.9909 15.9103 11.0024C15.9223 10.9937 15.9298 10.9805 15.9311 10.9662C16.2647 7.57166 15.3723 4.62302 13.5655 2.00907C13.5611 2.00034 13.5535 1.99409 13.5447 1.99034ZM5.34668 9.17774C4.55833 9.17774 3.90876 8.46588 3.90876 7.59165C3.90876 6.71741 4.54574 6.00556 5.34668 6.00556C6.15392 6.00556 6.79721 6.72366 6.78459 7.59165C6.78459 8.46588 6.14761 9.17774 5.34668 9.17774ZM10.6632 9.17774C9.87484 9.17774 9.22526 8.46588 9.22526 7.59165C9.22526 6.71741 9.86222 6.00556 10.6632 6.00556C11.4704 6.00556 12.1137 6.72366 12.1011 7.59165C12.1011 8.46588 11.4704 9.17774 10.6632 9.17774Z" fill="#9A99AD"/>
</svg>
