<svg width="16" height="14" viewBox="0 0 16 14" fill="none" xmlns="http://www.w3.org/2000/svg">
<path d="M15.968 0.684005C15.9555 0.624959 15.9273 0.570353 15.8865 0.525862C15.8457 0.48137 15.7937 0.448617 15.736 0.431005C15.5258 0.389084 15.3081 0.40463 15.106 0.476005C15.106 0.476005 1.08701 5.51401 0.286008 6.07201C0.114008 6.19301 0.0560078 6.26201 0.0270078 6.34401C-0.110992 6.74401 0.320008 6.91701 0.320008 6.91701L3.93301 8.09401C3.99401 8.10501 4.05676 8.10124 4.11601 8.08301C4.93801 7.56401 12.386 2.86101 12.816 2.70301C12.884 2.68301 12.934 2.70301 12.916 2.75201C12.744 3.35201 6.31001 9.07101 6.27501 9.10601C6.25793 9.12027 6.24456 9.13845 6.23603 9.15899C6.2275 9.17954 6.22406 9.20184 6.22601 9.22401L5.88901 12.752C5.88901 12.752 5.74701 13.852 6.84501 12.752C7.62401 11.973 8.37201 11.327 8.74501 11.014C9.98701 11.872 11.324 12.82 11.901 13.314C11.9976 13.4081 12.1123 13.4817 12.2381 13.5303C12.3639 13.5789 12.4982 13.6016 12.633 13.597C12.799 13.5765 12.9548 13.506 13.0798 13.3949C13.2048 13.2839 13.2931 13.1374 13.333 12.975C13.333 12.975 15.894 2.70001 15.979 1.31701C15.987 1.18201 16 1.10001 16 1.00001C16.0037 0.89371 15.9929 0.787409 15.968 0.684005Z" fill="#9A99AD"/>
</svg>
